<svg width="900" height="520" viewBox="0 0 900 520" xmlns="http://www.w3.org/2000/svg">
  <style>
    .grid { stroke:#ccc; stroke-width:1; }
    .cell { fill:#f8fff8; stroke:#aaa; stroke-width:1; }
    .tree { fill:#4c9a4c; stroke:#174d17; stroke-width:1.2; }
    .trunk { fill:#8a5a2b; stroke:#4a2b10; stroke-width:1; }
    .skip { fill:#eee; stroke:#999; stroke-width:1; opacity:.5; }
    .txt { font-family:monospace; font-size:13px; fill:#111; }
    .small { font-family:monospace; font-size:11px; fill:#333; }
  </style>

  <text x="50" y="40" class="txt">forest_hit(): check only 3x3 neighboring cells</text>

  <g transform="translate(60,80)">
    <rect x="0" y="0" width="90" height="90" class="cell"/>
    <rect x="90" y="0" width="90" height="90" class="cell"/>
    <rect x="180" y="0" width="90" height="90" class="cell"/>
    <rect x="0" y="90" width="90" height="90" class="cell"/>
    <rect x="90" y="90" width="90" height="90" fill="#fff2cc" stroke="#aa8" stroke-width="2"/>
    <rect x="180" y="90" width="90" height="90" class="cell"/>
    <rect x="0" y="180" width="90" height="90" class="cell"/>
    <rect x="90" y="180" width="90" height="90" class="cell"/>
    <rect x="180" y="180" width="90" height="90" class="cell"/>

    <circle cx="42" cy="55" r="12" class="tree"/>
    <circle cx="150" cy="35" r="12" class="skip"/>
    <circle cx="230" cy="72" r="12" class="tree"/>
    <circle cx="61" cy="145" r="12" class="tree"/>
    <circle cx="137" cy="132" r="5" fill="#d22"/>
    <circle cx="216" cy="145" r="12" class="tree"/>
    <circle cx="45" cy="220" r="12" class="skip"/>
    <circle cx="120" cy="246" r="12" class="tree"/>
    <circle cx="240" cy="225" r="12" class="tree"/>

    <text x="105" y="124" class="small">sample p</text>
    <text x="15" y="295" class="small">hash decides occupancy + jitter</text>
  </g>

  <g transform="translate(520,80)">
    <rect x="100" y="260" width="18" height="90" class="trunk"/>
    <ellipse cx="109" cy="250" rx="90" ry="34" class="tree"/>
    <ellipse cx="109" cy="205" rx="75" ry="30" class="tree"/>
    <ellipse cx="109" cy="165" rx="58" ry="26" class="tree"/>
    <ellipse cx="109" cy="130" rx="40" ry="22" class="tree"/>
    <ellipse cx="109" cy="100" rx="22" ry="18" class="tree"/>
    <text x="0" y="380" class="txt">one tree = trunk + stacked foliage SDF blobs</text>
    <text x="0" y="405" class="small">height, radius, sway, presence from hash(seed)</text>
  </g>
</svg>
