<svg width="900" height="520" viewBox="0 0 900 520" xmlns="http://www.w3.org/2000/svg">
  <defs>
    <linearGradient id="skygrad" x1="0" x2="0" y1="1" y2="0">
      <stop offset="0%" stop-color="#08051f"/>
      <stop offset="55%" stop-color="#07184a"/>
      <stop offset="100%" stop-color="#0b346a"/>
    </linearGradient>
  </defs>
  <style>
    .txt { font-family:monospace; font-size:13px; fill:#fff; }
    .darktxt { font-family:monospace; font-size:13px; fill:#111; }
    .mount { fill:#050914; }
    .aurora1 { fill:none; stroke:#3cff9a; stroke-width:18; opacity:.45; }
    .aurora2 { fill:none; stroke:#a64cff; stroke-width:12; opacity:.35; }
    .cloud { fill:none; stroke:#aab3d8; stroke-width:16; opacity:.22; }
    .moon { fill:#f2f5ff; stroke:#dfe7ff; stroke-width:8; }
  </style>

  <rect x="0" y="0" width="900" height="520" fill="url(#skygrad)"/>
  <path class="aurora1" d="M80,190 C190,120 310,250 430,170 C540,100 650,220 820,130"/>
  <path class="aurora2" d="M40,240 C180,170 310,270 460,210 C600,160 700,280 860,200"/>
  <path class="cloud" d="M100,300 C230,270 310,330 440,295 C560,260 690,335 810,300"/>
  <circle cx="680" cy="105" r="24" class="moon"/>

  <circle cx="160" cy="95" r="2" fill="#fff"/>
  <circle cx="220" cy="130" r="1.5" fill="#e8f2ff"/>
  <circle cx="310" cy="70" r="2" fill="#fff"/>
  <circle cx="510" cy="130" r="1.5" fill="#fff"/>
  <circle cx="760" cy="180" r="2" fill="#dcecff"/>

  <path class="mount" d="M0,390 L70,340 L130,370 L210,320 L300,380 L400,335 L500,365 L600,310 L700,370 L790,330 L900,380 L900,520 L0,520z"/>

  <text x="45" y="45" class="txt">procedural stars</text>
  <text x="475" y="100" class="txt">moon + halo</text>
  <text x="120" y="175" class="txt">aurora sine bands</text>
  <text x="110" y="305" class="txt">cloud band</text>
  <text x="350" y="430" class="txt">mountain silhouette from angular ridge</text>
</svg>
